# xmcd
#
# Track frame offsets:
#	150
#	13464
#	26301
#	38333
#	51738
#	64926
#	77350
#	92108
#	104572
#	116637
#	137020
#	153029
#	164959
#	177855
#
# Disc length: 2601 seconds
#
# Revision: 1
# Processed by: cddbd v1.5.2PL0 Copyright (c) Steve Scherf et al.
# Submitted via: audiograbber 1.83.01
#
DISCID=b80a270e
DTITLE=Z3 - Wenn a Zillertaler Musig macht
DYEAR=2009
DGENRE=Volkstümlich
TTITLE0=Wenn a Zillertaler Musig macht
TTITLE1=Heit da spielt Z3
TTITLE2=Um Zwölfe bei der Nacht (Dreihollaroh)
TTITLE3=Ich will mehr
TTITLE4=Zwei kleine Kinderaugen
TTITLE5=Der allerschönste Preis
TTITLE6=Die kloane Melodie
TTITLE7=Gold und Silber, Edelstein
TTITLE8=Mit oder ohne
TTITLE9=Z3 Stimmungsmedley
TTITLE10=Wenn du willst
TTITLE11=Hey du kannst mi gern haben
TTITLE12=Immer wieder klingen unsere Lieder
TTITLE13=Simply the best
EXTD=
EXTT0=
EXTT1=
EXTT2=
EXTT3=
EXTT4=
EXTT5=
EXTT6=
EXTT7=
EXTT8=
EXTT9=
EXTT10=
EXTT11=
EXTT12=
EXTT13=
PLAYORDER=
